<svg xmlns="http://www.w3.org/2000/svg" width="1em" height="1em" viewBox="0 0 24 24"><path fill="#0af5f1" d="M1 17.577v-.863q0-.922.985-1.53q.984-.607 2.534-.607q.229 0 .49.022q.262.022.556.072q-.234.41-.342.84q-.107.431-.107.864v1.202zm6 0v-1.125q0-.604.351-1.105q.351-.5 1.036-.866q.684-.365 1.595-.548t2.01-.183q1.121 0 2.032.183t1.595.548t1.033.866t.348 1.105v1.125zm11.885 0v-1.196q0-.479-.105-.902t-.314-.808q.313-.05.562-.072t.472-.022q1.55 0 2.525.605T23 16.714v.863zm-10.856-1h7.948v-.212q-.058-.711-1.166-1.163q-1.109-.452-2.811-.452t-2.81.452q-1.11.452-1.161 1.164zm-3.515-2.943q-.589 0-1.003-.417q-.415-.418-.415-1.005q0-.581.418-.993t1.005-.411q.581 0 1.002.411q.421.412.421.998q0 .57-.41.993q-.411.424-1.018.424m14.986 0q-.575 0-.999-.424t-.424-.993q0-.586.424-.998t1.003-.411q.596 0 1.008.411t.411.993q0 .587-.409 1.005q-.41.418-1.014.418M12.007 13q-.91 0-1.555-.64q-.644-.639-.644-1.552q0-.932.639-1.562q.64-.63 1.553-.63q.932 0 1.562.628t.63 1.557q0 .91-.628 1.555T12.007 13m.003-1q.492 0 .837-.355t.345-.847t-.342-.837t-.85-.346q-.483 0-.837.343q-.355.343-.355.85q0 .482.355.837q.354.355.847.355M12 10.808"/></svg>