<svg xmlns="http://www.w3.org/2000/svg" width="1em" height="1em" viewBox="0 0 20 20"><path fill="#0af5f1" d="M11.078 0c.294 0 .557.183.656.457l.706 1.957q.379.094.654.192q.3.107.78.33l1.644-.87a.7.7 0 0 1 .832.131l1.446 1.495c.192.199.246.49.138.744l-.771 1.807q.191.352.308.604q.126.273.312.76l1.797.77c.27.115.437.385.419.674l-.132 2.075a.69.69 0 0 1-.46.605l-1.702.605q-.073.352-.154.606a9 9 0 0 1-.298.774l.855 1.89a.68.68 0 0 1-.168.793l-1.626 1.452a.7.7 0 0 1-.796.096l-1.676-.888a7 7 0 0 1-.81.367l-.732.274l-.65 1.8a.7.7 0 0 1-.64.457L9.11 20a.7.7 0 0 1-.669-.447l-.766-2.027a15 15 0 0 1-.776-.29a10 10 0 0 1-.618-.293l-1.9.812a.7.7 0 0 1-.755-.133L2.22 16.303a.68.68 0 0 1-.155-.783l.817-1.78a10 10 0 0 1-.302-.644a14 14 0 0 1-.3-.811L.49 11.74a.69.69 0 0 1-.49-.683l.07-1.921a.69.69 0 0 1 .392-.594L2.34 7.64q.13-.478.23-.748a9 9 0 0 1 .314-.712L2.07 4.46a.68.68 0 0 1 .15-.79l1.404-1.326a.7.7 0 0 1 .75-.138l1.898.784q.314-.209.572-.344q.307-.162.824-.346l.66-1.841A.7.7 0 0 1 8.984 0zm-1.054 7.019c-1.667 0-3.018 1.335-3.018 2.983s1.351 2.984 3.018 2.984s3.017-1.336 3.017-2.984s-1.35-2.983-3.017-2.983"/></svg>